<svg width="96" height="96" xmlns="http://www.w3.org/2000/svg" xmlns:xlink="http://www.w3.org/1999/xlink" xml:space="preserve" overflow="hidden"><g transform="translate(-647 -463)"><path d="M681.081 514.423 674.206 514.423 674.206 507.6C674.739 507.936 675.355 508.114 675.985 508.114L682.34 508.114C684.073 508.134 685.548 506.855 685.771 505.136 685.959 503.314 684.634 501.685 682.812 501.497 682.699 501.486 682.585 501.48 682.471 501.48L677.071 501.48 674.261 499.418C673.733 499.016 673.225 498.587 672.741 498.133L672.351 497.782C671.169 496.729 669.596 496.226 668.023 496.4 665.121 496.753 662.955 499.242 663.005 502.165L663.005 515.45C663.008 518.561 665.528 521.082 668.639 521.085L677.766 521.085 677.766 531.742C677.744 533.476 679.024 534.951 680.743 535.174 680.854 535.185 680.965 535.19 681.075 535.19 682.905 535.196 684.394 533.717 684.4 531.887 684.4 531.883 684.4 531.878 684.4 531.874L684.4 517.74C684.398 515.908 682.913 514.424 681.081 514.423ZM671.9 503.408C671.455 503.08 670.829 503.175 670.502 503.62 670.174 504.064 670.268 504.69 670.713 505.018L672.213 506.118 672.213 516.418 681.088 516.418C681.815 516.421 682.402 517.013 682.4 517.74L682.4 531.874C682.401 532.601 681.812 533.191 681.086 533.192 681.038 533.192 680.991 533.189 680.944 533.184 680.243 533.071 679.738 532.451 679.768 531.742L679.768 519.085 668.639 519.085C666.633 519.082 665.007 517.456 665.005 515.45L665.005 502.143C664.966 500.242 666.369 498.619 668.255 498.381 669.261 498.271 670.265 498.594 671.019 499.269L671.4 499.611C671.935 500.111 672.495 500.583 673.078 501.026L676.418 503.475 682.472 503.475C683.199 503.475 683.789 504.065 683.789 504.793 683.788 504.839 683.786 504.886 683.781 504.932 683.669 505.633 683.049 506.139 682.34 506.109L675.987 506.109C675.706 506.108 675.432 506.02 675.204 505.856Z"/><path d="M668.005 495.2C670.766 495.2 673.005 492.961 673.005 490.2 673.005 487.439 670.766 485.2 668.005 485.2 665.244 485.2 663.005 487.439 663.005 490.2 663.005 492.961 665.244 495.2 668.005 495.2ZM668.005 487.2C669.662 487.2 671.005 488.543 671.005 490.2 671.005 491.857 669.662 493.2 668.005 493.2 666.348 493.2 665.005 491.857 665.005 490.2 665.005 488.543 666.348 487.2 668.005 487.2Z"/><path d="M675 524 668 524C663.584 523.995 660.005 520.416 660 516L660 503C660 502.448 659.552 502 659 502 658.448 502 658 502.448 658 503L658 516C658.005 520.75 661.347 524.844 666 525.8L666 534 661 534 661 536 673 536 673 534 668 534 668 526 675 526C675.552 526 676 525.552 676 525 676 524.448 675.552 524 675 524Z"/><path d="M696 512 712 512C712.552 512 713 511.552 713 511 713 510.448 712.552 510 712 510L678 510C677.448 510 677 510.448 677 511 677 511.552 677.448 512 678 512L694 512 694 534 687 534 687 536 703 536 703 534 696 534Z"/><path d="M727 515.45 727 502.178C727.055 499.244 724.88 496.745 721.967 496.393 720.398 496.225 718.832 496.727 717.653 497.776L717.263 498.128C716.779 498.582 716.271 499.011 715.743 499.413L712.932 501.475 707.532 501.475C705.7 501.475 704.214 502.961 704.215 504.794 704.215 504.906 704.221 505.019 704.232 505.131 704.456 506.85 705.931 508.13 707.664 508.109L714.02 508.109C714.649 508.111 715.267 507.934 715.8 507.6L715.8 514.428 708.927 514.428C707.096 514.43 705.612 515.914 705.609 517.745L705.609 531.874C705.608 533.705 707.092 535.19 708.923 535.19 708.926 535.19 708.93 535.19 708.933 535.19 709.043 535.19 709.153 535.19 709.265 535.174 710.984 534.951 712.264 533.475 712.242 531.742L712.242 521.085 721.369 521.085C724.478 521.08 726.997 518.559 727 515.45ZM714.8 505.856C714.572 506.02 714.299 506.108 714.018 506.109L707.668 506.109C706.959 506.137 706.341 505.632 706.226 504.932 706.149 504.209 706.672 503.56 707.396 503.482 707.442 503.478 707.489 503.475 707.536 503.475L713.59 503.475 716.93 501.026C717.513 500.584 718.073 500.111 718.607 499.611L718.989 499.268C719.739 498.597 720.737 498.274 721.738 498.379 723.635 498.615 725.044 500.249 725 502.16L725 515.45C724.998 517.456 723.372 519.082 721.366 519.085L710.242 519.085 710.242 531.742C710.272 532.452 709.766 533.072 709.065 533.184 708.692 533.227 708.319 533.105 708.043 532.851 707.766 532.602 707.607 532.247 707.609 531.874L707.609 517.74C707.61 517.013 708.2 516.424 708.927 516.423L717.8 516.423 717.8 506.123 719.3 505.023C719.745 504.695 719.839 504.069 719.511 503.624 719.183 503.179 718.557 503.085 718.112 503.413Z"/><path d="M722 495.2C724.761 495.2 727 492.961 727 490.2 727 487.439 724.761 485.2 722 485.2 719.239 485.2 717 487.439 717 490.2 717 492.961 719.239 495.2 722 495.2ZM722 487.2C723.657 487.2 725 488.543 725 490.2 725 491.857 723.657 493.2 722 493.2 720.343 493.2 719 491.857 719 490.2 719 488.543 720.343 487.2 722 487.2Z"/><path d="M731 502C730.448 502 730 502.448 730 503L730 516C729.995 520.416 726.416 523.995 722 524L715 524C714.448 524 714 524.448 714 525 714 525.552 714.448 526 715 526L722 526 722 534 717 534 717 536 729 536 729 534 724 534 724 525.8C728.653 524.844 731.994 520.75 732 516L732 503C732 502.448 731.552 502 731 502Z"/></g></svg>