<svg width="96" height="96" xmlns="http://www.w3.org/2000/svg" xmlns:xlink="http://www.w3.org/1999/xlink" xml:space="preserve" overflow="hidden"><g transform="translate(-387 -170)"><path d="M472.4 228.7 472.4 221.6C472.4 216.8 464.7 213.6 455.4 212.3L455.4 206.6C455.4 205 454.5 202.8 450.4 200.7L450.4 193.6C450.4 187.1 436.5 183.6 423.4 183.6 410.3 183.6 396.4 187.1 396.4 193.6L396.4 201.6C396.4 204 398.3 206 401.4 207.6L401.4 214.6C401.4 214.6 401.4 214.6 401.4 214.7 397.3 216.8 396.4 219.1 396.4 220.6L396.4 228.6C396.4 235.1 410.3 238.6 423.4 238.6L423.4 242.6C423.4 249.1 437.3 252.6 450.4 252.6 463.5 252.6 477.4 249.1 477.4 242.6L477.4 234.6C477.4 233.1 476.5 230.8 472.4 228.7ZM475.4 234.7C475.4 238.5 465.1 242.7 450.4 242.7 438.7 242.7 429.8 240 426.6 237 426.6 237 426.6 237 426.6 237 432.7 238.9 439 239.8 445.3 239.7 457.5 239.7 470.5 236.6 472.1 231 474.3 232.1 475.4 233.4 475.4 234.7ZM458.4 244.2 458.4 250.2C457.1 250.3 455.8 250.5 454.4 250.5L454.4 244.5C455.8 244.5 457.1 244.4 458.4 244.2ZM460.4 244C461.8 243.8 463.1 243.6 464.4 243.3L464.4 249.2C463.2 249.5 461.8 249.7 460.4 249.9L460.4 244ZM466.4 242.8C467.8 242.5 469.1 242 470.4 241.5L470.4 247.3C469.1 247.9 467.8 248.3 466.4 248.7L466.4 242.8ZM434.4 248.7C433 248.3 431.7 247.9 430.4 247.3L430.4 241.5C431.7 242 433 242.4 434.4 242.8L434.4 248.7ZM436.4 243.3C437.7 243.6 439 243.8 440.4 244L440.4 250C439 249.8 437.6 249.5 436.4 249.3L436.4 243.3ZM442.4 244.2C443.7 244.3 445.1 244.5 446.4 244.5L446.4 250.5C445 250.4 443.7 250.3 442.4 250.2L442.4 244.2ZM418.4 221.7 418.4 222C417 221.8 415.6 221.5 414.4 221.3L414.4 215.4C415.7 215.7 417 215.9 418.4 216.1L418.4 221.7ZM420.4 229.7 420.4 225.7C421.3 226.5 422.3 227.2 423.4 227.7L423.4 233.4C421.5 232.1 420.4 230.9 420.4 229.7L420.4 229.7ZM470.4 229.7C470.4 230.9 469.3 232.2 467.4 233.3L467.4 227.6C468.5 227.1 469.5 226.4 470.4 225.6L470.4 229.7ZM465.4 234.3C464.1 234.9 462.8 235.3 461.4 235.7L461.4 229.8C462.8 229.5 464.1 229 465.4 228.5L465.4 234.3ZM459.4 236.2C458.2 236.5 456.8 236.7 455.4 236.9L455.4 230.9C456.8 230.7 458.1 230.5 459.4 230.2L459.4 236.2ZM453.4 237.2C452.1 237.3 450.8 237.5 449.4 237.5L449.4 231.5C450.7 231.4 452.1 231.3 453.4 231.2L453.4 237.2ZM447.4 237.6C446.7 237.6 446.1 237.6 445.4 237.6 444.7 237.6 444.1 237.6 443.4 237.6L443.4 231.6C444.1 231.6 444.7 231.6 445.4 231.6 446.1 231.6 446.7 231.6 447.4 231.6L447.4 237.6ZM441.4 237.6C440 237.5 438.7 237.4 437.4 237.3L437.4 231.3C438.7 231.4 440.1 231.6 441.4 231.6L441.4 237.6ZM435.4 237C434 236.8 432.6 236.5 431.4 236.3L431.4 230.4C432.7 230.7 434 230.9 435.4 231.1L435.4 237ZM429.4 235.7C428 235.3 426.7 234.9 425.4 234.3L425.4 228.5C426.7 229 428 229.4 429.4 229.8L429.4 235.7ZM470.4 221.7C470.4 225.5 460.1 229.7 445.4 229.7 430.7 229.7 420.4 225.5 420.4 221.7 420.4 217.9 430.7 213.7 445.4 213.7 460.1 213.7 470.4 217.9 470.4 221.7ZM420.4 217.7 420.4 216.2C421 216.3 421.6 216.3 422.2 216.4 421.6 216.8 421 217.2 420.4 217.7ZM451.7 211.9C452.3 211.5 452.9 211.1 453.5 210.6L453.5 212.1C452.8 212 452.3 212 451.7 211.9ZM450.2 202.9C452.3 204.1 453.4 205.4 453.4 206.6 453.4 208.3 451.2 210.2 447.5 211.6 446.8 211.6 446.1 211.6 445.4 211.6 438.4 211.6 431.1 212.6 425.9 214.6 415.4 214.3 407.6 211.8 404.7 209 404.7 209 404.7 209 404.7 209 410.8 210.9 417.1 211.8 423.4 211.7 435.6 211.7 448.6 208.6 450.2 202.9ZM412.4 214.8 412.4 220.7C411 220.3 409.7 219.9 408.4 219.3L408.4 213.5C409.7 214 411.1 214.5 412.4 214.8ZM406.4 212.6 406.4 218.3C404.5 217.1 403.4 215.9 403.4 214.7L403.4 210.7C404.3 211.4 405.3 212.1 406.4 212.6ZM403.4 206.3 403.4 200.5C404.7 201 406 201.4 407.4 201.8L407.4 207.7C406.1 207.3 404.7 206.9 403.4 206.3ZM409.4 208.2 409.4 202.3C410.7 202.6 412 202.8 413.4 203L413.4 209C412 208.8 410.7 208.5 409.4 208.2ZM415.4 209.2 415.4 203.2C416.7 203.3 418.1 203.5 419.4 203.5L419.4 209.5C418 209.5 416.7 209.4 415.4 209.2ZM421.4 209.6 421.4 203.6C422.1 203.6 422.7 203.6 423.4 203.6 424.1 203.6 424.7 203.6 425.4 203.6L425.4 209.6C424.7 209.6 424.1 209.6 423.4 209.6 422.7 209.6 422.1 209.7 421.4 209.6ZM427.4 209.6 427.4 203.6C428.7 203.5 430.1 203.4 431.4 203.3L431.4 209.3C430.1 209.4 428.8 209.5 427.4 209.6ZM433.4 209 433.4 203C434.8 202.8 436.1 202.6 437.4 202.3L437.4 208.2C436.2 208.5 434.8 208.8 433.4 209ZM439.4 207.7 439.4 201.8C440.8 201.5 442.1 201 443.4 200.5L443.4 206.3C442.1 206.9 440.8 207.3 439.4 207.7ZM445.4 205.3 445.4 199.6C446.5 199.1 447.5 198.4 448.4 197.6L448.4 201.6C448.4 202.9 447.4 204.1 445.4 205.3ZM401.4 205.3C399.5 204.1 398.4 202.9 398.4 201.7L398.4 197.7C399.3 198.5 400.3 199.2 401.4 199.7L401.4 205.3ZM398.4 193.7C398.4 189.9 408.7 185.7 423.4 185.7 438.1 185.7 448.4 189.9 448.4 193.7 448.4 197.5 438.1 201.7 423.4 201.7 408.7 201.7 398.4 197.4 398.4 193.7ZM401.9 216.7C403.7 220.4 410.5 222.8 418.4 223.9L418.4 228.4C406.4 227.6 398.4 223.9 398.4 220.6 398.4 219.3 399.7 218 401.9 216.7ZM401.4 232.3C399.5 231.1 398.4 229.9 398.4 228.7L398.4 224.7C399.3 225.5 400.3 226.2 401.4 226.7L401.4 232.3ZM407.4 234.7C406 234.3 404.7 233.9 403.4 233.3L403.4 227.5C404.7 228 406 228.4 407.4 228.8L407.4 234.7ZM413.4 236C412 235.8 410.6 235.5 409.4 235.3L409.4 229.4C410.7 229.7 412 229.9 413.4 230.1L413.4 236ZM415.4 230.2C416.4 230.3 417.4 230.4 418.5 230.5 418.6 231.2 419 231.9 419.4 232.6L419.4 236.6C418 236.5 416.7 236.4 415.4 236.3L415.4 230.2ZM421.4 234.4C422 234.8 422.7 235.2 423.4 235.6L423.4 236.6C422.7 236.6 422.1 236.6 421.4 236.6L421.4 234.4ZM425.4 242.7 425.4 238.7C426.3 239.5 427.3 240.2 428.4 240.7L428.4 246.4C426.5 245.1 425.4 243.9 425.4 242.7L425.4 242.7ZM448.4 244.6C449.1 244.6 449.7 244.6 450.4 244.6 451.1 244.6 451.7 244.6 452.4 244.6L452.4 250.6C451.7 250.6 451.1 250.6 450.4 250.6 449.7 250.6 449.1 250.6 448.4 250.6L448.4 244.6ZM472.4 240.6C473.5 240.1 474.5 239.4 475.4 238.6L475.4 242.6C475.4 243.8 474.3 245.1 472.4 246.2L472.4 240.6Z"/></g></svg>